STARTFONT 2.1
FONT -Monotype-Book Antiqua-Bold-I-Normal--33-240-100-100-P-169-iso8859-4
SIZE 24 100 100
FONTBOUNDINGBOX 41 42 -6 -11

STARTPROPERTIES 24
FOUNDRY "Monotype"
FAMILY_NAME "Book Antiqua"
WEIGHT_NAME "Bold"
SLANT "I"
SETWIDTH_NAME "Normal"
ADD_STYLE_NAME ""
PIXEL_SIZE 33
POINT_SIZE 240
RESOLUTION_X 100
RESOLUTION_Y 100
SPACING "P"
AVERAGE_WIDTH 169
CHARSET_REGISTRY "iso8859"
CHARSET_ENCODING "4"
FACE_NAME "Book Antiqua Bold Italic ISO Latin4"
_DEC_DEVICE_FONTNAMES "PS=bookantiqua-bit-lat4"
COPYRIGHT "Copyright (c) 1993 Monotype Typography Ltd."
CAP_HEIGHT 28
X_HEIGHT 19
WEIGHT 10
QUAD_WIDTH 20
DEFAULT_CHAR 160
FONT_DESCENT 11
FONT_ASCENT 31
ENDPROPERTIES

CHARS 191

STARTCHAR space
ENCODING 32
SWIDTH 250 0
DWIDTH 8 0
BBX 0 0 0 0
BITMAP
ENDCHAR

STARTCHAR exclam
ENCODING 33
SWIDTH 333 0
DWIDTH 11 0
BBX 8 23 2 0
BITMAP
0F
1F
1E
1E
1E
1C
1C
1C
3C
38
38
38
30
30
30
20
00
00
60
F0
F0
F0
60
ENDCHAR

STARTCHAR quotedbl
ENCODING 34
SWIDTH 500 0
DWIDTH 17 0
BBX 12 11 4 12
BITMAP
70E0
F9F0
F9F0
F9F0
F9F0
70E0
70E0
70E0
70E0
2040
2040
ENDCHAR

STARTCHAR numbersign
ENCODING 35
SWIDTH 606 0
DWIDTH 20 0
BBX 18 23 2 0
BITMAP
070E00
070E00
070E00
060E00
060C00
060C00
0E0C00
FFFFC0
FFFFC0
0E1C00
0C1C00
0C1800
1C1800
1C1800
FFFF80
FFFF80
183800
183000
183000
383000
387000
387000
307000
ENDCHAR

STARTCHAR dollar
ENCODING 36
SWIDTH 500 0
DWIDTH 17 0
BBX 15 28 1 -4
BITMAP
0040
0040
03F8
0F7E
188C
3084
3084
7084
7180
7980
7D00
7FC0
3FF0
1FF8
03FC
037C
023C
021C
C21C
C218
C638
E630
FCE0
7F80
0400
0400
0C00
0C00
ENDCHAR

STARTCHAR percent
ENCODING 37
SWIDTH 889 0
DWIDTH 29 0
BBX 26 23 2 0
BITMAP
0F001800
39803000
31C07000
71C06000
71C0C000
F1C0C000
E1C18000
E1C30000
E3830000
E3860F00
E3863980
630C31C0
661871C0
3C1871C0
0030F1C0
0030E1C0
0060E1C0
00C0E3C0
00C0E380
0180E380
01806300
03006700
06003C00
ENDCHAR

STARTCHAR ampersand
ENCODING 38
SWIDTH 833 0
DWIDTH 27 0
BBX 24 23 2 0
BITMAP
003E00
00FF00
038700
070200
0E0200
0E0002
0E0003
0F0001
0F8001
01F007
07E0FE
1C07FC
381FC0
7819E0
F01070
F01070
F00070
F00070
F800E0
7C01C0
3E0380
1FFE00
07F000
ENDCHAR

STARTCHAR quoteright
ENCODING 39
SWIDTH 278 0
DWIDTH 9 0
BBX 8 10 2 13
BITMAP
07
1E
1E
1C
38
38
70
60
E0
40
ENDCHAR

STARTCHAR parenleft
ENCODING 40
SWIDTH 333 0
DWIDTH 11 0
BBX 10 28 2 -4
BITMAP
0040
00C0
0180
0300
0600
0E00
1C00
3C00
3800
7800
7800
7800
F000
F000
F000
F000
F000
F000
7000
7000
7000
3000
3000
1800
1800
0C00
0400
0600
ENDCHAR

STARTCHAR parenright
ENCODING 41
SWIDTH 333 0
DWIDTH 11 0
BBX 10 28 -1 -4
BITMAP
1800
0800
0C00
0600
0600
0300
0380
0380
0380
03C0
03C0
03C0
03C0
03C0
03C0
03C0
0380
0780
0780
0700
0F00
0E00
1C00
1C00
3800
7000
6000
8000
ENDCHAR

STARTCHAR asterisk
ENCODING 42
SWIDTH 444 0
DWIDTH 15 0
BBX 12 12 3 11
BITMAP
0200
4380
6300
F300
3E00
05F0
1FE0
7E30
F600
6300
0380
0200
ENDCHAR

STARTCHAR plus
ENCODING 43
SWIDTH 606 0
DWIDTH 20 0
BBX 17 17 1 3
BITMAP
01C000
01C000
01C000
01C000
01C000
01C000
01C000
FFFF80
FFFF80
FFFF80
01C000
01C000
01C000
01C000
01C000
01C000
01C000
ENDCHAR

STARTCHAR comma
ENCODING 44
SWIDTH 250 0
DWIDTH 8 0
BBX 8 11 -2 -6
BITMAP
01
0F
1E
1E
1C
3C
38
30
60
C0
40
ENDCHAR

STARTCHAR minus
ENCODING 45
SWIDTH 606 0
DWIDTH 20 0
BBX 16 3 2 10
BITMAP
FFFF
FFFF
FFFF
ENDCHAR

STARTCHAR period
ENCODING 46
SWIDTH 250 0
DWIDTH 8 0
BBX 5 5 0 0
BITMAP
70
F8
F8
F8
70
ENDCHAR

STARTCHAR slash
ENCODING 47
SWIDTH 315 0
DWIDTH 10 0
BBX 21 28 -6 -4
BITMAP
000078
000070
0000F0
0001E0
0001C0
0003C0
000380
000700
000F00
000E00
001E00
003C00
003800
007800
007000
00F000
01E000
01C000
03C000
038000
070000
0F0000
0E0000
1E0000
1C0000
380000
780000
F00000
ENDCHAR

STARTCHAR zero
ENCODING 48
SWIDTH 500 0
DWIDTH 17 0
BBX 15 23 1 0
BITMAP
03F0
0738
0E1C
1C1C
3C1E
3C1E
7C1E
781E
781E
781E
F81E
F83E
F03E
F03C
F03C
F03C
F07C
F078
7078
70F0
70E0
39C0
1F80
ENDCHAR

STARTCHAR one
ENCODING 49
SWIDTH 500 0
DWIDTH 17 0
BBX 12 23 1 0
BITMAP
0020
00E0
03E0
1FE0
79E0
E3C0
03C0
03C0
03C0
03C0
03C0
0780
0780
0780
0780
0780
0780
0F00
0F00
0F00
0F00
1F80
FFF0
ENDCHAR

STARTCHAR two
ENCODING 50
SWIDTH 500 0
DWIDTH 17 0
BBX 15 23 -1 0
BITMAP
03E0
07F8
0FFC
183E
101E
101E
201E
001E
001E
003C
003C
0078
0070
00E0
00C0
0180
0300
0600
0C00
1802
3FFE
7FFE
FFFC
ENDCHAR

STARTCHAR three
ENCODING 51
SWIDTH 500 0
DWIDTH 17 0
BBX 14 23 1 0
BITMAP
03E0
0FF8
1FF8
107C
203C
203C
0038
0038
0070
01C0
0FE0
08F8
0078
003C
003C
003C
403C
C03C
C078
C078
C0F0
E1E0
7F80
ENDCHAR

STARTCHAR four
ENCODING 52
SWIDTH 500 0
DWIDTH 17 0
BBX 16 23 0 0
BITMAP
0006
003C
007C
005C
00DC
01BC
033C
0238
0678
0C78
1878
1878
3078
2070
60F0
FFFF
FFFE
00F0
00F0
00E0
01E0
01F0
1FFE
ENDCHAR

STARTCHAR five
ENCODING 53
SWIDTH 500 0
DWIDTH 17 0
BBX 15 23 1 0
BITMAP
0806
1FFC
1FFC
1FF8
1800
1000
1000
1000
3000
37E0
2FF0
3078
207C
003C
003C
003C
003C
803C
8078
C078
C0F0
E1E0
7F80
ENDCHAR

STARTCHAR six
ENCODING 54
SWIDTH 500 0
DWIDTH 17 0
BBX 14 23 1 0
BITMAP
007C
01FC
0384
0600
0E00
1C00
3C00
3800
7800
79F0
73F8
FC78
F83C
F83C
F03C
F03C
F03C
F038
F038
7070
7860
38C0
1F80
ENDCHAR

STARTCHAR seven
ENCODING 55
SWIDTH 500 0
DWIDTH 17 0
BBX 15 23 3 0
BITMAP
FFFE
FFFE
FFFC
FFEC
0018
0030
0030
0060
0060
00C0
01C0
0180
0300
0700
0600
0E00
1C00
1C00
3800
7800
7800
F000
F000
ENDCHAR

STARTCHAR eight
ENCODING 56
SWIDTH 500 0
DWIDTH 17 0
BBX 15 23 1 0
BITMAP
00F0
07FC
0C1C
1C0E
180E
380E
380C
3C1C
3E38
1FE0
0FE0
07F8
0DF8
187C
703C
603C
E01C
E01C
E018
E038
7060
3FC0
0F00
ENDCHAR

STARTCHAR nine
ENCODING 57
SWIDTH 500 0
DWIDTH 17 0
BBX 15 23 1 0
BITMAP
01E0
07F8
0E3C
1C1C
381E
381E
781E
781E
781E
781E
7C3E
3C7E
3FDC
1F3C
003C
0038
0078
0070
40E0
C0C0
4180
7F00
3C00
ENDCHAR

STARTCHAR colon
ENCODING 58
SWIDTH 250 0
DWIDTH 8 0
BBX 6 16 1 0
BITMAP
1C
3C
3C
3C
18
00
00
00
00
00
00
70
F0
F0
F0
60
ENDCHAR

STARTCHAR semicolon
ENCODING 59
SWIDTH 250 0
DWIDTH 8 0
BBX 9 21 -2 -5
BITMAP
0700
0780
0F80
0F00
0700
0000
0000
0000
0000
0000
0000
0700
1E00
1E00
3C00
3800
3800
7000
6000
E000
C000
ENDCHAR

STARTCHAR less
ENCODING 60
SWIDTH 606 0
DWIDTH 20 0
BBX 16 18 2 2
BITMAP
0001
0007
003F
00FF
03F8
0FE0
3F80
FE00
F000
F800
7F00
1FC0
07F0
01FC
007F
001F
0003
0001
ENDCHAR

STARTCHAR equal
ENCODING 61
SWIDTH 606 0
DWIDTH 20 0
BBX 16 9 2 7
BITMAP
FFFF
FFFF
FFFF
0000
0000
0000
FFFF
FFFF
FFFF
ENDCHAR

STARTCHAR greater
ENCODING 62
SWIDTH 606 0
DWIDTH 20 0
BBX 16 18 2 2
BITMAP
8000
E000
F800
FF00
1FC0
07F0
01FC
007F
000F
003F
00FF
03F8
0FE0
3F80
FE00
F800
C000
8000
ENDCHAR

STARTCHAR question
ENCODING 63
SWIDTH 444 0
DWIDTH 15 0
BBX 12 23 3 0
BITMAP
0F00
3FC0
3FE0
61F0
40F0
C0F0
00F0
01E0
01E0
03C0
0700
0E00
1C00
1800
1000
1800
0000
0000
3000
7800
7800
7800
3000
ENDCHAR

STARTCHAR at
ENCODING 64
SWIDTH 833 0
DWIDTH 27 0
BBX 24 25 3 -2
BITMAP
007F80
038060
060010
0C0008
180004
300004
603DC2
6075C2
40E382
C1C382
C3C782
838782
878702
878F04
871F04
879E08
C7EE10
47CE61
438782
200002
300004
100008
0C0030
0381C0
007E00
ENDCHAR

STARTCHAR A
ENCODING 65
SWIDTH 722 0
DWIDTH 24 0
BBX 24 23 -2 0
BITMAP
0001C0
0003E0
0003E0
0007E0
0005E0
000DE0
0009E0
0019E0
0031F0
0030F0
0060F0
0040F0
00C0F0
01FFF0
0180F8
0300F8
030078
060078
060078
0C0078
1C007C
1C007C
FF03FF
ENDCHAR

STARTCHAR B
ENCODING 66
SWIDTH 667 0
DWIDTH 22 0
BBX 20 23 1 0
BITMAP
3FFFC0
07C3E0
0781F0
0780F0
0780F0
0780F0
0780F0
0F81E0
0F01C0
0F0780
0FFE00
0FFF80
0F07C0
1E03E0
1E01E0
1E01E0
1E01E0
1E01E0
1E03E0
1E03C0
3E0780
3E1F00
FFFC00
ENDCHAR

STARTCHAR C
ENCODING 67
SWIDTH 685 0
DWIDTH 23 0
BBX 21 23 2 0
BITMAP
003FE0
00FFF8
03C0F0
070030
0E0030
1E0030
3C0030
3C0000
7C0000
780000
780000
780000
F80000
F80000
F80000
F80000
F80000
780000
7C0020
3E0060
3F0380
0FFF00
03F800
ENDCHAR

STARTCHAR D
ENCODING 68
SWIDTH 778 0
DWIDTH 26 0
BBX 25 23 0 0
BITMAP
3FFFF000
07C0FC00
03C03E00
07C01E00
07C01F00
07800F00
07800F80
07800F80
07800F80
0F800F80
0F800F80
0F000F80
0F000F00
0F000F00
0F001F00
0F001E00
1F001E00
1E003C00
1E003800
1E007800
1E00E000
3F83C000
FFFF0000
ENDCHAR

STARTCHAR E
ENCODING 69
SWIDTH 611 0
DWIDTH 20 0
BBX 20 23 0 0
BITMAP
3FFFF0
07FFE0
07C060
07C020
078020
078020
078000
078000
078000
0F0000
0FFF00
0FFF00
0F0000
0F0000
0F0000
1F0000
1E0000
1E0040
1E00C0
1E00C0
3E0180
7FFF80
FFFF80
ENDCHAR

STARTCHAR F
ENCODING 70
SWIDTH 556 0
DWIDTH 18 0
BBX 20 23 -1 0
BITMAP
1FFFF0
03FFF0
03E030
03E020
03C020
03C020
03C000
03C000
03C000
07C000
078000
07FF80
07FF80
078000
078000
0F8000
0F0000
0F0000
0F0000
0F0000
0F0000
1F0000
FFE000
ENDCHAR

STARTCHAR G
ENCODING 71
SWIDTH 778 0
DWIDTH 26 0
BBX 22 23 2 0
BITMAP
003FE0
00FFF8
03C078
070018
0E0018
1C0010
3C0010
780000
780000
F80000
F80000
F00000
F00000
F00FFC
F001F0
F000F0
F801F0
F801E0
7801E0
3C01E0
3F03E0
0FFF80
01F800
ENDCHAR

STARTCHAR H
ENCODING 72
SWIDTH 778 0
DWIDTH 26 0
BBX 28 23 -1 0
BITMAP
1FFC7FF0
03E00F80
03E00F80
03E00F00
03C00F00
03C00F00
03C00F00
03C01F00
03C01E00
07C01E00
07FFFE00
07801E00
07801E00
07803E00
07803C00
0F803C00
0F003C00
0F003C00
0F003C00
0F007C00
1F007C00
1F007C00
FFE3FF80
ENDCHAR

STARTCHAR I
ENCODING 73
SWIDTH 389 0
DWIDTH 13 0
BBX 14 23 0 0
BITMAP
1FFC
03E0
03C0
03C0
03C0
03C0
07C0
0780
0780
0780
0780
0780
0F80
0F00
0F00
0F00
0F00
0F00
1F00
1F00
1E00
3F00
FFE0
ENDCHAR

STARTCHAR J
ENCODING 74
SWIDTH 389 0
DWIDTH 13 0
BBX 15 29 -1 -6
BITMAP
0FFE
01F0
01F0
01E0
01E0
01E0
01E0
03E0
03C0
03C0
03C0
03C0
03C0
07C0
0780
0780
0780
0780
0780
0F80
0F00
0F00
0F00
0F00
1E00
1E00
1C00
3800
F000
ENDCHAR

STARTCHAR K
ENCODING 75
SWIDTH 722 0
DWIDTH 24 0
BBX 25 23 0 0
BITMAP
1FFC1F80
03E01E00
03C03800
03C07000
03C0E000
03C1C000
07C38000
07870000
078E0000
079C0000
07B80000
07BC0000
0FBC0000
0F3E0000
0F1F0000
0F0F8000
0F0F8000
0F07C000
1F03E000
1F01E000
1E01F000
3F00F800
FFC0FE00
ENDCHAR

STARTCHAR L
ENCODING 76
SWIDTH 611 0
DWIDTH 20 0
BBX 18 23 0 0
BITMAP
3FF800
07C000
07C000
07C000
078000
078000
078000
078000
078000
0F8000
0F0000
0F0000
0F0000
0F0000
0F0000
1F0000
1E0000
1E0040
1E0040
1E00C0
3E00C0
3FFF80
FFFF80
ENDCHAR

STARTCHAR M
ENCODING 77
SWIDTH 944 0
DWIDTH 31 0
BBX 33 23 -1 0
BITMAP
0FE0007F80
01F0007E00
01F000FC00
01F0009C00
017001BC00
0378037C00
0378037800
0278067800
0278067800
067C0C7800
063C187800
043C18F800
043C30F000
0C3E20F000
0C1E60F000
0C1EC0F000
081EC0F000
180F81F000
180F81F000
180F01E000
380F01E000
380603F000
FE040FFC00
ENDCHAR

STARTCHAR N
ENCODING 78
SWIDTH 778 0
DWIDTH 26 0
BBX 28 23 -1 0
BITMAP
1FC00FF0
07E00180
01E00180
03F00180
03F00100
03780300
037C0300
027C0300
023E0300
061E0200
061F0200
060F0600
060F8600
0607C600
0407C600
0C03E400
0C01E400
0C01FC00
0C00FC00
0C00FC00
1C007C00
1C007800
FF003800
ENDCHAR

STARTCHAR O
ENCODING 79
SWIDTH 833 0
DWIDTH 27 0
BBX 24 23 2 0
BITMAP
007FC0
01E1F0
078078
0F003C
1E001E
1E001E
3C001F
7C001F
7C001F
78001F
78001F
F8001F
F8001E
F8001E
F8003E
F8003C
78003C
780078
780070
3C00F0
1E01C0
0F8780
03FE00
ENDCHAR

STARTCHAR P
ENCODING 80
SWIDTH 667 0
DWIDTH 22 0
BBX 22 23 -1 0
BITMAP
1FFFF0
03E0F8
01E07C
03E03C
03E03C
03C03C
03C03C
03C03C
03C078
03C078
07C0F0
0791E0
079F80
078000
078000
078000
0F8000
0F0000
0F0000
0F0000
0F0000
1F0000
FFF000
ENDCHAR

STARTCHAR Q
ENCODING 81
SWIDTH 833 0
DWIDTH 27 0
BBX 24 30 2 -7
BITMAP
007FC0
01E1F0
078078
0F003C
1E001E
1E001E
3C001F
7C001F
7C001F
78001F
78001F
F8001F
F8001E
F8001E
F8003E
F8003C
78003C
780078
780070
3C00E0
1E01C0
0F8780
01FC00
078000
0FF002
187C02
101F86
100FFC
0003F8
000070
ENDCHAR

STARTCHAR R
ENCODING 82
SWIDTH 722 0
DWIDTH 24 0
BBX 23 23 0 0
BITMAP
1FFFE0
03C1F0
03C0F8
03C078
07C078
07C078
078078
0780F0
0780F0
0783C0
0FBF00
0FBE00
0F1E00
0F1F00
0F0F80
0F0780
0F07C0
1F03C0
1E03E0
1E01F0
1E01F0
3F00F8
FFC0FE
ENDCHAR

STARTCHAR S
ENCODING 83
SWIDTH 556 0
DWIDTH 18 0
BBX 16 23 1 0
BITMAP
00FC
03FF
0E07
1C02
1802
3802
3800
3800
3C00
3F00
1FF8
1FFC
07FE
007E
001E
000E
400E
400E
401C
C018
F030
FFE0
1F80
ENDCHAR

STARTCHAR T
ENCODING 84
SWIDTH 611 0
DWIDTH 20 0
BBX 21 23 1 0
BITMAP
7FFFF8
7FFFF0
60F810
40F810
40F010
C0F010
00F000
00F000
01F000
01F000
01E000
01E000
01E000
01E000
01E000
03E000
03C000
03C000
03C000
03C000
07C000
07C000
3FF800
ENDCHAR

STARTCHAR U
ENCODING 85
SWIDTH 778 0
DWIDTH 26 0
BBX 25 23 2 0
BITMAP
FF03FF80
1F007C00
1F007C00
1E007800
1E007800
1E007800
1E007800
3E00F800
3C00F800
3C00F000
3C00F000
3C00F000
3C00F000
7C01F000
7801F000
7801E000
7801E000
7803E000
7C06E000
7C1DE000
3FF3E000
1FE3E000
0783FC00
ENDCHAR

STARTCHAR V
ENCODING 86
SWIDTH 667 0
DWIDTH 22 0
BBX 23 23 2 0
BITMAP
FFC1FE
3E0038
1E0030
1E0060
1F0060
1F00C0
0F00C0
0F0180
0F0180
0F0300
0F8300
0F8600
078600
078C00
078800
079800
07F000
07F000
03E000
03E000
03C000
03C000
038000
ENDCHAR

STARTCHAR W
ENCODING 87
SWIDTH 1000 0
DWIDTH 33 0
BBX 33 23 2 0
BITMAP
FFC0C03F80
3E00C00E00
3E01E00E00
1E01E00C00
1E03E00C00
1E03E01800
1E06F01800
1E06F01800
1E0CF03000
1E0CF83000
1F08782000
1F18786000
0F10786000
0F307C4000
0F203CC000
0F603C8000
0F403D8000
0FC01F8000
0F801F0000
0F801F0000
0F001E0000
0F000E0000
06000E0000
ENDCHAR

STARTCHAR X
ENCODING 88
SWIDTH 722 0
DWIDTH 24 0
BBX 26 23 -1 0
BITMAP
1FFC7FC0
03E00E00
03E00C00
01F01800
01F03000
00F86000
00F8C000
007DC000
003D8000
003F0000
001E0000
001F0000
001F0000
00378000
00678000
00C7C000
01C3C000
0383E000
0701E000
0601F000
0C00F000
3C01F800
FF87FE00
ENDCHAR

STARTCHAR Y
ENCODING 89
SWIDTH 611 0
DWIDTH 20 0
BBX 20 23 1 0
BITMAP
3C0010
7E0070
FE00F0
1F00E0
0F01C0
0F8380
078300
078600
078400
03CC00
03C800
03D800
01D000
01F000
01F000
01E000
01E000
01E000
03E000
03E000
03C000
03E000
1FFC00
ENDCHAR

STARTCHAR Z
ENCODING 90
SWIDTH 667 0
DWIDTH 22 0
BBX 22 23 0 0
BITMAP
0FFFFC
0FFFFC
0800F8
1801F0
1803E0
1007C0
000FC0
000F80
001F00
003E00
007E00
007C00
00F800
01F000
03E000
07E000
07C000
0F8008
1F0018
3F0010
7C0030
7FFFF0
FFFFF0
ENDCHAR

STARTCHAR bracketleft
ENCODING 91
SWIDTH 333 0
DWIDTH 11 0
BBX 11 28 0 -4
BITMAP
0FE0
1E00
1E00
1E00
1E00
1C00
1C00
1C00
1C00
3C00
3C00
3C00
3800
3800
3800
3800
7800
7800
7800
7000
7000
7000
7000
F000
F000
F000
F000
FF00
ENDCHAR

STARTCHAR backslash
ENCODING 92
SWIDTH 606 0
DWIDTH 20 0
BBX 12 28 4 -4
BITMAP
F000
F000
7000
7000
7800
7800
3800
3C00
3C00
1C00
1C00
1E00
1E00
0E00
0F00
0F00
0700
0780
0780
0780
0380
03C0
03C0
01C0
01E0
01E0
01E0
00F0
ENDCHAR

STARTCHAR bracketright
ENCODING 93
SWIDTH 333 0
DWIDTH 11 0
BBX 11 28 0 -4
BITMAP
1FE0
01E0
01E0
01E0
01E0
01C0
01C0
01C0
01C0
03C0
03C0
0380
0380
0380
0380
0380
0780
0780
0700
0700
0700
0700
0700
0F00
0F00
0F00
1F00
FE00
ENDCHAR

STARTCHAR asciicircum
ENCODING 94
SWIDTH 606 0
DWIDTH 20 0
BBX 17 13 2 10
BITMAP
01C000
03E000
03E000
07F000
077000
0F7800
0E3800
1E3C00
1C1C00
3C1E00
380E00
780F00
F00780
ENDCHAR

STARTCHAR underscore
ENCODING 95
SWIDTH 500 0
DWIDTH 17 0
BBX 17 2 0 -4
BITMAP
FFFF80
FFFF80
ENDCHAR

STARTCHAR quoteleft
ENCODING 96
SWIDTH 278 0
DWIDTH 9 0
BBX 7 10 2 13
BITMAP
02
06
0C
1C
1C
38
78
78
F8
80
ENDCHAR

STARTCHAR a
ENCODING 97
SWIDTH 556 0
DWIDTH 18 0
BBX 16 16 1 0
BITMAP
00F3
03FE
061E
0C1E
1C1C
381C
383C
783C
7058
70D8
F0B8
F138
F27B
FC7E
F878
6030
ENDCHAR

STARTCHAR b
ENCODING 98
SWIDTH 537 0
DWIDTH 18 0
BBX 15 25 2 0
BITMAP
0300
7E00
7E00
1E00
1E00
1E00
1C00
1C00
3C00
3C3C
38FE
399E
3A1E
7C1E
7C1E
781E
781C
701C
703C
F038
F070
F070
F8C0
7F80
3C00
ENDCHAR

STARTCHAR c
ENCODING 99
SWIDTH 444 0
DWIDTH 15 0
BBX 14 16 1 0
BITMAP
01FC
07F8
0E38
1C18
3818
7800
7800
7000
F000
F000
F000
F010
F030
F8E0
7F80
3E00
ENDCHAR

STARTCHAR d
ENCODING 100
SWIDTH 556 0
DWIDTH 18 0
BBX 17 24 1 0
BITMAP
000080
001F80
003F80
000780
000700
000700
000F00
000F00
00F700
03FE00
0E0E00
1C1E00
3C1E00
381C00
783C00
783C00
705C00
F05C00
F0B800
F13800
F23900
FC7E00
F87C00
703000
ENDCHAR

STARTCHAR e
ENCODING 101
SWIDTH 444 0
DWIDTH 15 0
BBX 13 16 1 0
BITMAP
00F0
03F8
0E38
1C38
3838
3870
78E0
71C0
7E00
7000
F000
F000
F030
F8E0
7F80
3E00
ENDCHAR

STARTCHAR f
ENCODING 102
SWIDTH 333 0
DWIDTH 11 0
BBX 20 34 -5 -10
BITMAP
000070
0001F0
0003E0
000660
000C20
001C00
003C00
003800
007800
00FF80
03FF80
007800
007000
00F000
00F000
00F000
00E000
00E000
01E000
01E000
01C000
01C000
01C000
03C000
038000
038000
038000
030000
070000
060000
440000
780000
F00000
C00000
ENDCHAR

STARTCHAR g
ENCODING 103
SWIDTH 500 0
DWIDTH 17 0
BBX 19 25 -2 -9
BITMAP
00FE60
018FE0
070700
070700
0E0700
0E0700
0E0700
0E0E00
0E0E00
071C00
03F000
00C000
018000
03C000
01F000
03F800
0CFC00
387E00
701E00
E00E00
E00E00
E00E00
F01C00
783800
1FE000
ENDCHAR

STARTCHAR h
ENCODING 104
SWIDTH 556 0
DWIDTH 18 0
BBX 16 25 1 0
BITMAP
0080
1F80
3F00
0700
0F00
0F00
0F00
0E00
0E00
0E0F
1E1F
1C3F
1CCF
1C8E
1D0E
3A1E
3E1C
3C3C
383C
3838
7838
7079
707E
F07C
C070
ENDCHAR

STARTCHAR i
ENCODING 105
SWIDTH 333 0
DWIDTH 11 0
BBX 9 23 1 0
BITMAP
0380
0780
0780
0300
0000
0000
0000
0600
1E00
3E00
DE00
9E00
1C00
1C00
1C00
3C00
3800
3800
3800
7B00
7E00
7800
7000
ENDCHAR

STARTCHAR j
ENCODING 106
SWIDTH 333 0
DWIDTH 11 0
BBX 13 32 -2 -9
BITMAP
0038
0078
0078
0070
0000
0000
0000
00E0
01E0
07E0
1DE0
09E0
01E0
01C0
01C0
03C0
03C0
0380
0380
0780
0780
0700
0700
0700
0F00
0E00
0E00
0C00
1C00
9800
F000
E000
ENDCHAR

STARTCHAR k
ENCODING 107
SWIDTH 556 0
DWIDTH 18 0
BBX 17 25 1 0
BITMAP
008000
1F8000
3F8000
078000
070000
0F0000
0F0000
0F0000
0E0000
0E0780
1E0F80
1E3880
1E6000
1CC000
1CC000
3DC000
39E000
3DE000
38E000
38F000
78F000
787980
707F00
703C00
803000
ENDCHAR

STARTCHAR l
ENCODING 108
SWIDTH 333 0
DWIDTH 11 0
BBX 9 25 2 0
BITMAP
0180
1F00
3F00
0F00
0F00
0E00
0E00
1E00
1E00
1C00
1C00
3C00
3C00
3800
3800
3800
7800
7800
7000
7000
F100
F200
FC00
F800
6000
ENDCHAR

STARTCHAR m
ENCODING 109
SWIDTH 833 0
DWIDTH 27 0
BBX 26 16 1 0
BITMAP
0E070380
1E1F0F80
7E3F1F80
DE472780
9C8F4780
1D0E8700
1F0F8F00
3A0F0F00
3C0E0E00
3C1E0E00
381E1E00
781C1E00
783C1EC0
703C1F00
70381E00
C0701800
ENDCHAR

STARTCHAR n
ENCODING 110
SWIDTH 556 0
DWIDTH 18 0
BBX 17 16 1 0
BITMAP
0E0700
3E1F00
7E3F00
DE6F00
1C8F00
1D0E00
1F0E00
3A1E00
3C1E00
3C1C00
383C00
783C00
783D80
703F00
F03C00
C03000
ENDCHAR

STARTCHAR o
ENCODING 111
SWIDTH 556 0
DWIDTH 18 0
BBX 15 16 2 0
BITMAP
03F8
0E3C
1C1E
381E
381E
781E
701E
F01E
F01C
F01C
F03C
F038
F070
7860
7FC0
1E00
ENDCHAR

STARTCHAR p
ENCODING 112
SWIDTH 556 0
DWIDTH 18 0
BBX 18 24 -1 -8
BITMAP
018380
0787C0
1F9FC0
37B3C0
2763C0
0743C0
0783C0
0F0380
0F0380
0F0780
0E0700
0E0F00
1C0E00
1E1800
1FF000
1FC000
3C0000
3C0000
380000
380000
780000
780000
780000
F00000
ENDCHAR

STARTCHAR q
ENCODING 113
SWIDTH 537 0
DWIDTH 18 0
BBX 16 24 1 -8
BITMAP
00F9
03FF
060E
0C0E
1C1E
3C1E
381C
783C
783C
705C
F0BC
F1B8
F338
FC78
F878
6070
0070
00F0
00F0
00F0
00E0
01E0
01E0
03E0
ENDCHAR

STARTCHAR r
ENCODING 114
SWIDTH 389 0
DWIDTH 13 0
BBX 13 16 1 0
BITMAP
0E38
1E70
7EF0
DCF0
1D90
1D00
1A00
1E00
3C00
3C00
3800
3800
7800
7800
7800
4000
ENDCHAR

STARTCHAR s
ENCODING 115
SWIDTH 444 0
DWIDTH 15 0
BBX 13 16 0 0
BITMAP
01E0
07F8
1C30
1810
3810
3C00
3F00
3FE0
1FF0
01F0
0070
4070
4060
70C0
FF80
3E00
ENDCHAR

STARTCHAR t
ENCODING 116
SWIDTH 389 0
DWIDTH 13 0
BBX 12 22 2 0
BITMAP
0180
0780
0F00
0F00
0F00
0E00
3FF0
FFF0
1E00
1E00
1C00
1C00
1C00
3C00
3C00
3800
3800
7840
7980
7F00
7C00
3000
ENDCHAR

STARTCHAR u
ENCODING 117
SWIDTH 556 0
DWIDTH 18 0
BBX 16 16 1 0
BITMAP
0E07
3E0E
7E0E
9C1E
1C1E
1C1C
1C3C
381C
387C
3858
78B8
7138
737B
7E7E
7878
7070
ENDCHAR

STARTCHAR v
ENCODING 118
SWIDTH 556 0
DWIDTH 18 0
BBX 16 16 1 0
BITMAP
7FC7
7F8F
4117
8303
0603
0E03
0E07
1C06
1C06
3C04
3C0C
3C18
3C10
3E60
1FC0
0F00
ENDCHAR

STARTCHAR w
ENCODING 119
SWIDTH 833 0
DWIDTH 27 0
BBX 26 16 0 0
BITMAP
7FE1C380
7FC3C7C0
4183C5C0
C303C0C0
070380C0
0E0380C0
0E0781C0
1C078180
1C070180
3C0F0300
3C1B0300
3C170600
3C270C00
3E479800
1F87F000
0F03C000
ENDCHAR

STARTCHAR x
ENCODING 120
SWIDTH 500 0
DWIDTH 17 0
BBX 17 16 0 0
BITMAP
0F0380
1F8700
3F8F00
639900
03F000
03E000
01C000
01C000
01C000
03C000
02E000
05E000
88E200
F8FC00
F0F800
C06000
ENDCHAR

STARTCHAR y
ENCODING 121
SWIDTH 556 0
DWIDTH 18 0
BBX 18 25 0 -9
BITMAP
0700C0
1F03C0
3F0380
CF0380
4F0780
0F0780
0F0700
0E0F00
1E0F00
1E1E00
1E3600
1E3E00
1E5C00
1F9C00
1F1C00
0E3800
003800
003800
003000
007000
206000
60C000
E08000
730000
7E0000
ENDCHAR

STARTCHAR z
ENCODING 122
SWIDTH 500 0
DWIDTH 17 0
BBX 14 16 1 0
BITMAP
1F04
3FFC
3FFC
23D8
6030
0060
00C0
0180
0300
0600
0C00
1804
3F88
7FF8
FFF8
81F8
ENDCHAR

STARTCHAR braceleft
ENCODING 123
SWIDTH 333 0
DWIDTH 11 0
BBX 15 31 0 -7
BITMAP
0006
0038
00E0
01E0
03C0
03C0
03C0
03C0
07C0
07C0
07C0
0780
0700
0E00
1C00
6000
3000
1C00
1C00
1E00
1E00
3E00
7C00
7C00
7800
F800
F000
F000
7000
3800
1C00
ENDCHAR

STARTCHAR bar
ENCODING 124
SWIDTH 606 0
DWIDTH 20 0
BBX 3 30 9 -6
BITMAP
E0
E0
E0
E0
E0
E0
E0
E0
E0
E0
E0
E0
E0
E0
E0
E0
E0
E0
E0
E0
E0
E0
E0
E0
E0
E0
E0
E0
E0
E0
ENDCHAR

STARTCHAR braceright
ENCODING 125
SWIDTH 333 0
DWIDTH 11 0
BBX 14 31 -2 -7
BITMAP
00C0
0070
0038
003C
003C
007C
007C
00F8
00F8
01F0
01F0
01E0
01E0
00E0
0070
0018
0070
01C0
0380
0780
0780
0F80
0F80
0F80
0F00
0F00
0F00
1E00
1C00
3800
E000
ENDCHAR

STARTCHAR asciitilde
ENCODING 126
SWIDTH 606 0
DWIDTH 20 0
BBX 18 6 1 8
BITMAP
3E0040
7FC0C0
7FF1C0
E3FF80
C0FF80
801F00
ENDCHAR

STARTCHAR space
ENCODING 160
SWIDTH 250 0
DWIDTH 11 0
BBX 0 0 0 0
BITMAP
ENDCHAR

STARTCHAR Aogonek
ENCODING 161
SWIDTH 722 0
DWIDTH 24 0
BBX 24 29 -2 -6
BITMAP
0001C0
0003C0
0003C0
0007E0
000DE0
000DE0
0019E0
0019E0
0031E0
0021F0
0061F0
00C0F0
00C0F0
01FFF0
0180F0
0300F0
0600F8
060078
0C0078
0C0078
180078
3C007C
FF03DF
000020
000060
0000C0
0000C0
0000E4
000078
ENDCHAR

STARTCHAR afii240
ENCODING 162
SWIDTH 500 0
DWIDTH 17 0
BBX 19 15 -2 0
BITMAP
0FF7E0
07E380
03C200
07C400
078800
079800
077C00
0F7C00
0FBC00
0F3C00
1F3E00
1E3E00
1E1E00
3E3F00
FF7FC0
ENDCHAR

STARTCHAR Rcommaaccent
ENCODING 163
SWIDTH 722 0
DWIDTH 24 0
BBX 23 32 0 -9
BITMAP
1FFFE0
03C1F0
03C0F8
03C078
07C078
07C078
078078
0780F0
0780F0
0783C0
0FBF00
0FBE00
0F1E00
0F1F00
0F0F80
0F0780
0F07C0
1F03C0
1E03E0
1E01F0
1E01F0
3F00F8
FFC0FE
000000
000000
003800
007000
007000
006000
00C000
008000
010000
ENDCHAR

STARTCHAR currency
ENCODING 164
SWIDTH 606 0
DWIDTH 20 0
BBX 16 16 2 4
BITMAP
43C2
EFF7
FFFF
7FFE
781E
F00F
F00F
E007
E007
F007
F00F
781F
7C7E
FFFF
FFFF
67E6
ENDCHAR

STARTCHAR Itilde
ENCODING 165
SWIDTH 389 0
DWIDTH 13 0
BBX 15 30 0 0
BITMAP
0786
0FE4
09FC
1078
0000
0000
0000
1FFC
03E0
03C0
03C0
03C0
03C0
07C0
0780
0780
0780
0780
0780
0F80
0F00
0F00
0F00
0F00
0F00
1F00
1F00
1E00
3F00
FFE0
ENDCHAR

STARTCHAR Lcommaaccent
ENCODING 166
SWIDTH 611 0
DWIDTH 20 0
BBX 18 31 0 -8
BITMAP
3FF800
07C000
07C000
07C000
078000
078000
078000
078000
078000
0F8000
0F0000
0F0000
0F0000
0F0000
0F0000
1F0000
1E0000
1E0040
1E0040
1E00C0
3E00C0
3FFF80
FFFF80
000000
000000
00E000
01C000
01C000
018000
030000
060000
ENDCHAR

STARTCHAR section
ENCODING 167
SWIDTH 556 0
DWIDTH 18 0
BBX 15 28 1 -5
BITMAP
01F0
07FE
0C1C
080C
1804
1C04
1E00
1F00
0FC0
1FE0
39F8
30FC
703C
701C
780C
7C0C
3F18
1F98
07E0
01F0
00F8
0078
4038
4038
4030
E060
78C0
3F80
ENDCHAR

STARTCHAR hungarumlaut
ENCODING 168
SWIDTH 333 0
DWIDTH 11 0
BBX 14 6 1 17
BITMAP
030C
071C
0F3C
1C70
30C0
C180
ENDCHAR

STARTCHAR Scaron
ENCODING 169
SWIDTH 556 0
DWIDTH 18 0
BBX 16 30 1 0
BITMAP
0603
030E
019C
01F8
00F0
0060
0000
00FC
03FF
0E07
1C02
1802
3802
3800
3800
3C00
3F00
1FF8
1FFC
07FE
007E
001E
000E
400E
400E
401C
C018
F030
FFE0
1F80
ENDCHAR

STARTCHAR Emacron
ENCODING 170
SWIDTH 611 0
DWIDTH 20 0
BBX 20 28 0 0
BITMAP
01FFC0
01FF80
000000
000000
000000
3FFFF0
07FFE0
07C060
07C020
078020
078020
078000
078000
078000
0F0000
0FFF00
0FFF00
0F0000
0F0000
0F0000
1F0000
1E0000
1E0040
1E00C0
1E00C0
3E0180
7FFF80
FFFF80
ENDCHAR

STARTCHAR Gcommaaccent
ENCODING 171
SWIDTH 778 0
DWIDTH 26 0
BBX 22 31 2 -8
BITMAP
003FE0
00FFF8
03C078
070018
0E0018
1C0010
3C0010
780000
780000
F80000
F80000
F00000
F00000
F00FFC
F001F0
F000F0
F801F0
F801E0
7801E0
3C01E0
3F03E0
0FFF80
01F800
000000
001000
007000
00E000
00C000
00C000
018000
030000
ENDCHAR

STARTCHAR afii237
ENCODING 172
SWIDTH 611 0
DWIDTH 20 0
BBX 21 22 2 0
BITMAP
1FFFF8
1FFFF0
1C7C70
307C30
207810
20F810
00F800
00F800
01F000
01F000
FFFFC0
03E000
03E000
03E000
03C000
07C000
07C000
07C000
0F8000
0F8000
1F8000
7FF000
ENDCHAR

STARTCHAR hyphen
ENCODING 173
SWIDTH 389 0
DWIDTH 13 0
BBX 12 4 0 6
BITMAP
3FF0
3FE0
7FE0
FFC0
ENDCHAR

STARTCHAR Zcaron
ENCODING 174
SWIDTH 667 0
DWIDTH 22 0
BBX 22 30 0 0
BITMAP
0060E0
0031C0
003B80
001F00
001E00
000000
000000
0FFFFC
0FFFFC
0800F8
1801F0
1803E0
1007C0
000FC0
000F80
001F00
003E00
007E00
007C00
00F800
01F000
03E000
07E000
07C000
0F8008
1F0018
3F0010
7C0030
7FFFF0
FFFFF0
ENDCHAR

STARTCHAR macron
ENCODING 175
SWIDTH 333 0
DWIDTH 11 0
BBX 11 2 2 19
BITMAP
7FE0
FFE0
ENDCHAR

STARTCHAR degree
ENCODING 176
SWIDTH 396 0
DWIDTH 13 0
BBX 10 10 3 13
BITMAP
1E00
3F80
6180
C0C0
C0C0
C0C0
C0C0
6180
3F00
1E00
ENDCHAR

STARTCHAR aogonek
ENCODING 177
SWIDTH 556 0
DWIDTH 18 0
BBX 15 22 1 -6
BITMAP
00F2
03FE
061C
1C1C
383C
383C
3838
7878
7058
70B8
F178
F370
F672
FC7C
F878
6020
0040
0080
0180
0180
01D8
00F0
ENDCHAR

STARTCHAR ogonek
ENCODING 178
SWIDTH 333 0
DWIDTH 11 0
BBX 6 6 -1 -6
BITMAP
30
60
C0
C0
EC
78
ENDCHAR

STARTCHAR rcommaaccent
ENCODING 179
SWIDTH 389 0
DWIDTH 13 0
BBX 13 24 1 -8
BITMAP
0E38
1E70
7EF0
DCF0
9D90
1D00
1A00
1E00
3C00
3C00
3800
3800
7800
7800
7800
7000
0000
0000
1C00
1800
3800
3000
6000
C000
ENDCHAR

STARTCHAR acute
ENCODING 180
SWIDTH 333 0
DWIDTH 11 0
BBX 8 6 4 17
BITMAP
03
07
0F
1C
30
C0
ENDCHAR

STARTCHAR itilde
ENCODING 181
SWIDTH 333 0
DWIDTH 11 0
BBX 12 22 1 0
BITMAP
3C10
7F30
47E0
43C0
0000
0000
0200
0F00
3F00
6E00
9E00
1E00
1E00
1C00
3C00
3C00
3C00
3800
7880
7B00
7C00
7800
ENDCHAR

STARTCHAR lcommaaccent
ENCODING 182
SWIDTH 333 0
DWIDTH 11 0
BBX 11 33 1 -9
BITMAP
00E0
0FC0
03C0
03C0
0380
0380
0380
0780
0780
0700
0700
0F00
0F00
0E00
0E00
1E00
1E00
1C00
1C00
3C00
3CC0
3D80
3E00
3C00
0000
0000
1C00
3800
3800
3000
6000
4000
8000
ENDCHAR

STARTCHAR caron
ENCODING 183
SWIDTH 333 0
DWIDTH 11 0
BBX 11 6 3 17
BITMAP
C060
61C0
7380
3F00
3E00
1C00
ENDCHAR

STARTCHAR commaaccent
ENCODING 184
SWIDTH 333 0
DWIDTH 11 0
BBX 7 9 0 -11
BITMAP
06
1E
1C
1C
38
30
30
60
C0
ENDCHAR

STARTCHAR scaron
ENCODING 185
SWIDTH 444 0
DWIDTH 15 0
BBX 15 23 0 0
BITMAP
0C0E
0618
0330
03E0
01C0
0180
0000
01E0
07F8
1C30
1810
3810
3C00
3F00
3FE0
1FF0
01F0
0070
4070
4060
70C0
FF80
3E00
ENDCHAR

STARTCHAR emacron
ENCODING 186
SWIDTH 444 0
DWIDTH 15 0
BBX 14 21 1 0
BITMAP
0FFC
0FFC
0000
0000
0000
00F0
03F8
0E38
1C38
3838
3870
78E0
71C0
7E00
7000
F000
F000
F030
F8E0
7F80
3E00
ENDCHAR

STARTCHAR gcommaaccent
ENCODING 187
SWIDTH 500 0
DWIDTH 17 0
BBX 19 34 -2 -9
BITMAP
000100
000600
000400
000C00
001C00
001800
003800
000000
000000
007C00
01DFE0
030720
070700
0E0700
0E0700
0E0700
0E0E00
0E0E00
071C00
03F000
00C000
018000
03C000
01F000
03F800
0CFC00
387E00
701E00
E00E00
E00E00
E00E00
F01C00
783800
1FE000
ENDCHAR

STARTCHAR afii253
ENCODING 188
SWIDTH 278 0
DWIDTH 9 0
BBX 11 20 0 0
BITMAP
0040
0080
0180
0380
0F80
3FE0
3FC0
0F00
1E00
1E00
FF80
3E00
3C00
3C00
3C00
7800
7900
7A00
7C00
3800
ENDCHAR

STARTCHAR afii238
ENCODING 189
SWIDTH 775 0
DWIDTH 26 0
BBX 26 23 -1 0
BITMAP
03FC7E00
00F8C780
00FB0380
00FE03C0
00FC03C0
01F803C0
01F003C0
01F007C0
01E007C0
03E007C0
03E00FC0
03E00FC0
07C00FC0
07C00F80
07C01F80
07801F00
0F801F00
0F801E00
0F873C00
0F0F3C00
1F0F3800
3F0F6000
FFE7C000
ENDCHAR

STARTCHAR zcaron
ENCODING 190
SWIDTH 500 0
DWIDTH 17 0
BBX 15 23 1 0
BITMAP
0606
070C
03B8
01F0
01E0
00C0
0000
1F04
3FFC
3FFC
23D8
6030
0060
00C0
0180
0300
0600
0C00
1804
3F88
7FF8
FFF8
81F8
ENDCHAR

STARTCHAR afii254
ENCODING 191
SWIDTH 477 0
DWIDTH 16 0
BBX 16 22 -1 -7
BITMAP
0F8F
3F1F
0F3F
0F4F
1F8F
1E8F
1F1E
1E1E
3E1E
3C3C
3C3C
783C
787C
7878
F878
0078
00F0
00F0
00E0
1DE0
1DC0
1F00
ENDCHAR

STARTCHAR Amacron
ENCODING 192
SWIDTH 722 0
DWIDTH 24 0
BBX 24 28 -2 0
BITMAP
000FFE
000FFC
000000
000000
000000
0001C0
0003E0
0003E0
0007E0
0005E0
000DE0
0009E0
0019E0
0031F0
0030F0
0060F0
0040F0
00C0F0
01FFF0
0180F8
0300F8
030078
060078
060078
0C0078
1C007C
1C007C
FF03FF
ENDCHAR

STARTCHAR Aacute
ENCODING 193
SWIDTH 722 0
DWIDTH 24 0
BBX 24 30 -2 0
BITMAP
000038
000078
0000F0
0001C0
000380
000000
000000
0001C0
0003E0
0003E0
0007E0
0005E0
000DE0
0009E0
0019E0
0031F0
0030F0
0060F0
0040F0
00C0F0
01FFF0
0180F8
0300F8
030078
060078
060078
0C0078
1C007C
1C007C
FF03FF
ENDCHAR

STARTCHAR Acircumflex
ENCODING 194
SWIDTH 722 0
DWIDTH 24 0
BBX 24 30 -2 0
BITMAP
0001E0
0001E0
0003B0
000630
001C18
000000
000000
0001C0
0003E0
0003E0
0007E0
0005E0
000DE0
0009E0
0019E0
0031F0
0030F0
0060F0
0040F0
00C0F0
01FFF0
0180F8
0300F8
030078
060078
060078
0C0078
1C007C
1C007C
FF03FF
ENDCHAR

STARTCHAR Atilde
ENCODING 195
SWIDTH 722 0
DWIDTH 24 0
BBX 24 29 -2 0
BITMAP
000784
000FEC
0019FC
001070
000000
000000
0001C0
0003E0
0003E0
0007E0
0005E0
000DE0
0009E0
0019E0
0031F0
0030F0
0060F0
0040F0
00C0F0
01FFF0
0180F8
0300F8
030078
060078
060078
0C0078
1C007C
1C007C
FF03FF
ENDCHAR

STARTCHAR Adieresis
ENCODING 196
SWIDTH 722 0
DWIDTH 24 0
BBX 24 28 -2 0
BITMAP
000C18
001E3C
001E3C
000C18
000000
0001C0
0003C0
0003C0
0007E0
000DE0
000DE0
0019E0
0011E0
0031E0
0061F0
0061F0
00C0F0
0080F0
01FFF0
0100F0
0300F0
0600F8
0600F8
0C0078
0C0078
180078
38007C
FF03FF
ENDCHAR

STARTCHAR Aring
ENCODING 197
SWIDTH 722 0
DWIDTH 24 0
BBX 24 31 -1 0
BITMAP
0001C0
0003E0
000630
000630
000630
0003E0
0001C0
000000
0003C0
0003C0
0007C0
0007C0
000DC0
001BE0
001BE0
0031E0
0021E0
0061E0
0041E0
00C1E0
0181F0
01FFF0
0300F0
0300F0
0600F0
0E00F0
0C00F8
1800F8
180078
3800F8
FF03FF
ENDCHAR

STARTCHAR AE
ENCODING 198
SWIDTH 944 0
DWIDTH 31 0
BBX 32 23 -1 0
BITMAP
001FFFFF
0003FFFE
00033C06
00033C02
00063C02
000C3C02
000C7C00
00187800
00107800
00307800
00607800
00607FF0
00C0F800
01FFF000
0180F000
0300F000
0600F000
0600F004
0C01F004
1C01E00C
1801E008
3C03FFF8
FF07FFF8
ENDCHAR

STARTCHAR Iogonek
ENCODING 199
SWIDTH 389 0
DWIDTH 13 0
BBX 14 30 0 -7
BITMAP
1FFC
03E0
03C0
03C0
03C0
03C0
07C0
07C0
0780
0780
0780
0780
0F80
0F80
0F00
0F00
0F00
0F00
1F00
1F00
1F00
3F00
FFE0
0400
1800
3000
3000
3900
3F00
0C00
ENDCHAR

STARTCHAR Ccaron
ENCODING 200
SWIDTH 685 0
DWIDTH 23 0
BBX 21 30 2 0
BITMAP
00C0E0
006180
003700
003E00
001C00
000000
000000
003FE0
00FFF8
03C0F0
070030
0E0030
1E0030
3C0030
3C0000
7C0000
780000
780000
780000
F80000
F80000
F80000
F80000
F80000
780000
7C0020
3E0060
3F0380
0FFF00
03F800
ENDCHAR

STARTCHAR Eacute
ENCODING 201
SWIDTH 611 0
DWIDTH 20 0
BBX 20 30 0 0
BITMAP
000700
000F00
001E00
003800
007000
000000
000000
3FFFF0
07FFE0
07C060
07C020
078020
078020
078000
078000
078000
0F0000
0FFF00
0FFF00
0F0000
0F0000
0F0000
1F0000
1E0000
1E0040
1E00C0
1E00C0
3E0180
7FFF80
FFFF80
ENDCHAR

STARTCHAR Eogonek
ENCODING 202
SWIDTH 611 0
DWIDTH 20 0
BBX 20 30 0 -7
BITMAP
1FFFF0
07FFF0
03C020
07C020
07C020
078020
078000
078000
078000
078000
0FFF00
0FFF00
0F0000
0F0000
0F0000
0F0000
1F0000
1E0040
1E0040
1E00C0
1E00C0
7FFF80
FFFF80
000800
001800
003000
003000
003900
003F00
000C00
ENDCHAR

STARTCHAR Edieresis
ENCODING 203
SWIDTH 611 0
DWIDTH 20 0
BBX 20 29 -1 0
BITMAP
00C180
01E3C0
01E3C0
00C180
000000
000000
1FFFF0
07FFF0
03C030
03C010
03C030
03C030
07C000
078000
078000
078000
07FF80
07FF80
0F8000
0F0000
0F0000
0F0000
0F0000
0F0060
1F0060
1F0040
1E00C0
3FFFC0
FFFFC0
ENDCHAR

STARTCHAR Edotaccent
ENCODING 204
SWIDTH 611 0
DWIDTH 20 0
BBX 20 29 0 0
BITMAP
001800
003C00
003C00
001800
000000
000000
3FFFF0
07FFE0
07C060
07C020
078020
078020
078000
078000
0F8000
0F8000
0FFF00
0FFF00
0F0000
0F0000
0F0000
1F0000
1E0000
1E0040
1E00C0
1E00C0
3E0180
7FFF80
FFFF80
ENDCHAR

STARTCHAR Iacute
ENCODING 205
SWIDTH 389 0
DWIDTH 13 0
BBX 14 31 0 0
BITMAP
0010
0038
0078
00E0
01C0
0300
0000
0000
1FFC
03E0
03C0
03C0
03C0
03C0
07C0
0780
0780
0780
0780
0780
0F80
0F00
0F00
0F00
0F00
0F00
1F00
1F00
1E00
3F00
FFE0
ENDCHAR

STARTCHAR Icircumflex
ENCODING 206
SWIDTH 389 0
DWIDTH 13 0
BBX 14 31 0 0
BITMAP
00C0
01E0
03E0
0770
0E30
1818
0000
0000
1FFC
03E0
03C0
03C0
03C0
03C0
07C0
0780
0780
0780
0780
0780
0F80
0F00
0F00
0F00
0F00
0F00
1F00
1F00
1E00
3F00
FFE0
ENDCHAR

STARTCHAR Imacron
ENCODING 207
SWIDTH 389 0
DWIDTH 13 0
BBX 14 28 0 0
BITMAP
0FFC
1FFC
0000
0000
0000
1FFC
03E0
03C0
03C0
03C0
03C0
07C0
0780
0780
0780
0780
0780
0F80
0F00
0F00
0F00
0F00
0F00
1F00
1F00
1E00
3F00
FFE0
ENDCHAR

STARTCHAR Eth
ENCODING 208
SWIDTH 778 0
DWIDTH 26 0
BBX 25 23 0 0
BITMAP
3FFFF000
07C0FC00
03C03E00
07C01E00
07C00F00
07800F00
07800F80
07800F80
07800F80
07800F80
3FFE0F80
7FFC0F80
0F000F00
0F000F00
0F001F00
0F001E00
1F001E00
1E003C00
1E003800
1E007800
1E00E000
3F83C000
FFFF0000
ENDCHAR

STARTCHAR Ncommaaccent
ENCODING 209
SWIDTH 778 0
DWIDTH 26 0
BBX 28 32 -1 -9
BITMAP
1FC00FF0
07E00180
01E00180
03F00180
03F00100
03780300
037C0300
027C0300
023E0300
061E0200
061F0200
060F0600
060F8600
0607C600
0407C600
0C03E400
0C01E400
0C01FC00
0C00FC00
0C00FC00
1C007C00
1C007800
FF003800
00000000
00000000
001C0000
00380000
00380000
00300000
00600000
00C00000
00400000
ENDCHAR

STARTCHAR Omacron
ENCODING 210
SWIDTH 833 0
DWIDTH 27 0
BBX 24 28 2 0
BITMAP
007FF0
007FE0
000000
000000
000000
007FC0
01E1F0
078078
0F003C
1E001E
1E001E
3C001F
7C001F
7C001F
78001F
78001F
F8001F
F8001E
F8001E
F8003E
F8003C
78003C
780078
780070
3C00F0
1E01C0
0F8780
03FE00
ENDCHAR

STARTCHAR Kcommaaccent
ENCODING 211
SWIDTH 722 0
DWIDTH 24 0
BBX 25 32 0 -9
BITMAP
1FFC1F80
03E01E00
03C03800
03C07000
03C0E000
03C1C000
07C38000
07870000
078E0000
079C0000
07B80000
07BC0000
0FBC0000
0F3E0000
0F1F0000
0F0F8000
0F0F8000
0F07C000
1F03E000
1F01E000
1E01F000
3F00F800
FFC0FE00
00000000
00000000
00380000
00700000
00700000
00600000
00C00000
00800000
01000000
ENDCHAR

STARTCHAR Ocircumflex
ENCODING 212
SWIDTH 833 0
DWIDTH 27 0
BBX 24 30 2 0
BITMAP
000700
000F80
001D80
0030C0
00E0E0
000000
000000
007FC0
01E1F0
078078
0F003C
1E001E
1E001E
3C001F
7C001F
7C001F
78001F
78001F
F8001F
F8001E
F8001E
F8003E
F8003C
78003C
780078
780070
3C00F0
1E01C0
0F8780
03FE00
ENDCHAR

STARTCHAR Otilde
ENCODING 213
SWIDTH 833 0
DWIDTH 27 0
BBX 24 30 2 0
BITMAP
003C30
007F20
004FE0
00C3C0
000000
000000
000000
007FC0
01E1F0
078078
0F003C
1E001E
1E001E
3C001F
7C001F
7C001F
78001F
78001F
F8001F
F8001E
F8001E
F8003E
F8003C
78003C
780078
780070
3C00F0
1E01C0
0F8780
03FE00
ENDCHAR

STARTCHAR Odieresis
ENCODING 214
SWIDTH 833 0
DWIDTH 27 0
BBX 24 29 2 0
BITMAP
003060
0078F0
0078F0
003060
000000
000000
007FC0
01E0F0
078078
0F003C
1E001E
1E001E
3C001F
7C001F
7C001F
78001F
78001F
F8001F
F8001E
F8001E
F8003E
F8003C
78003C
780078
7C0070
3C00F0
1E01C0
0F8780
03FE00
ENDCHAR

STARTCHAR multiply
ENCODING 215
SWIDTH 606 0
DWIDTH 20 0
BBX 14 14 3 4
BITMAP
6018
F03C
7878
3CF0
1EE0
0FC0
0780
0FC0
1FE0
3CF0
7878
F03C
6018
2008
ENDCHAR

STARTCHAR Oslash
ENCODING 216
SWIDTH 833 0
DWIDTH 27 0
BBX 24 27 2 -2
BITMAP
000001
000003
007FC6
01E1FC
078078
0F003C
1E007E
1E00DE
3C01DF
7C039F
7C071F
780E1F
780C1F
F8181F
F8301E
F8601E
F8C03E
F9803C
7B003C
7A0078
7C0070
3C00E0
3E01C0
7F8780
E3FE00
C00000
400000
ENDCHAR

STARTCHAR Uogonek
ENCODING 217
SWIDTH 778 0
DWIDTH 26 0
BBX 25 30 2 -7
BITMAP
FF03FF80
1F007C00
1E007C00
1E007800
1E007800
1E007800
1E00F800
3E00F800
3C00F000
3C00F000
3C00F000
3C00F000
3C01F000
7C01F000
7801E000
7801E000
7801E000
7803E000
7805E000
7C19E000
3FF3E000
1FE3E000
0783FC00
00008000
00030000
00060000
00060000
00072000
0007E000
00018000
ENDCHAR

STARTCHAR Uacute
ENCODING 218
SWIDTH 778 0
DWIDTH 26 0
BBX 25 31 2 0
BITMAP
0000C000
0001C000
0003C000
00078000
000E0000
00180000
00000000
00000000
FF03FF80
1F007C00
1F007C00
1E007800
1E007800
1E007800
1E007800
3E00F800
3C00F800
3C00F000
3C00F000
3C00F000
3C00F000
7C01F000
7801F000
7801E000
7801E000
7803E000
7C06E000
7C1DE000
3FF3E000
1FE3E000
0783FC00
ENDCHAR

STARTCHAR Ucircumflex
ENCODING 219
SWIDTH 778 0
DWIDTH 26 0
BBX 25 31 2 0
BITMAP
00070000
000F0000
001F8000
00198000
0030C000
00E0E000
00000000
00000000
FF03FF80
1F007C00
1F007C00
1E007800
1E007800
1E007800
1E007800
3E00F800
3C00F800
3C00F000
3C00F000
3C00F000
3C00F000
7C01F000
7801F000
7801E000
7801E000
7803E000
7C06E000
7C1DE000
3FF3E000
1FE3E000
0783FC00
ENDCHAR

STARTCHAR Udieresis
ENCODING 220
SWIDTH 778 0
DWIDTH 26 0
BBX 25 29 2 0
BITMAP
00306000
0078F000
0078F000
00306000
00000000
00000000
FF01FF80
1F003E00
1F003C00
1F003C00
1E003C00
1E007C00
1E007800
3E007800
3E007800
3C007800
3C007800
3C00F800
3C00F000
7C00F000
7C00F000
7800F000
7801F000
7803F000
7C07F000
7E0DE000
3FF9E000
1FF1F000
0781FC00
ENDCHAR

STARTCHAR Utilde
ENCODING 221
SWIDTH 778 0
DWIDTH 26 0
BBX 25 30 2 0
BITMAP
00782000
007E6000
00DFC000
00838000
00000000
00000000
00000000
FF03FF80
1F007C00
1F007C00
1E007800
1E007800
1E007800
1E007800
3E00F800
3C00F800
3C00F000
3C00F000
3C00F000
3C00F000
7C01F000
7801F000
7801E000
7801E000
7803E000
7C06E000
7C1DE000
3FF3E000
1FE3E000
0783FC00
ENDCHAR

STARTCHAR Umacron
ENCODING 222
SWIDTH 778 0
DWIDTH 26 0
BBX 25 28 2 0
BITMAP
00FFE000
00FFE000
00000000
00000000
00000000
FF03FF80
1F007C00
1F007C00
1E007800
1E007800
1E007800
1E007800
3E00F800
3C00F800
3C00F000
3C00F000
3C00F000
3C00F000
7C01F000
7801F000
7801E000
7801E000
7803E000
7C06E000
7C1DE000
3FF1E000
1FE3E000
0783FC00
ENDCHAR

STARTCHAR germandbls
ENCODING 223
SWIDTH 556 0
DWIDTH 18 0
BBX 22 34 -4 -10
BITMAP
0000F0
0001F8
00063C
000C1C
001C1C
00381C
003818
007838
007830
01F060
07F040
00F0C0
00F1C0
00F1E0
00E1E0
01E0F0
01E0F8
01E078
01C078
01C038
03C830
03C830
038C60
038FC0
038F00
070000
070000
070000
060000
060000
CC0000
F80000
F00000
C00000
ENDCHAR

STARTCHAR amacron
ENCODING 224
SWIDTH 556 0
DWIDTH 18 0
BBX 16 21 1 0
BITMAP
07FF
07FF
0000
0000
0000
00F3
03FE
061E
0C1E
1C1C
381C
383C
781C
7058
70D8
F0B8
F138
F27B
FC7E
F878
6030
ENDCHAR

STARTCHAR aacute
ENCODING 225
SWIDTH 556 0
DWIDTH 18 0
BBX 16 23 1 0
BITMAP
000C
001E
003C
0070
00C0
0180
0000
00F3
03FE
061E
0C1E
1C1C
381C
383C
781C
7058
70D8
F0B8
F138
F27B
FC7E
F878
6030
ENDCHAR

STARTCHAR acircumflex
ENCODING 226
SWIDTH 556 0
DWIDTH 18 0
BBX 16 23 1 0
BITMAP
0070
00F8
01D8
039C
070C
0C06
0000
00F3
03FE
061E
0C1E
1C1C
381C
383C
781C
7058
70D8
F0B8
F138
F27B
FC7E
F878
6030
ENDCHAR

STARTCHAR atilde
ENCODING 227
SWIDTH 556 0
DWIDTH 18 0
BBX 16 22 1 0
BITMAP
03C3
07F2
04FE
0C3C
0000
0000
00F3
03FE
061E
0C1E
1C1C
381C
383C
781C
7058
70D8
F0B8
F138
F27B
FC7E
F878
6030
ENDCHAR

STARTCHAR adieresis
ENCODING 228
SWIDTH 556 0
DWIDTH 18 0
BBX 16 21 1 0
BITMAP
0306
078F
078F
0306
0000
00F9
03FF
060E
0C0E
1C1E
381E
383C
783C
785C
705C
F0B8
F138
F339
FE3E
F87C
6030
ENDCHAR

STARTCHAR aring
ENCODING 229
SWIDTH 556 0
DWIDTH 18 0
BBX 16 24 1 0
BITMAP
0070
00F8
018C
018C
018C
00F8
0070
0000
00F3
03FE
061E
0C1E
1C1C
381C
383C
781C
7058
70D8
F0B8
F138
F27B
FC7E
F878
6030
ENDCHAR

STARTCHAR ae
ENCODING 230
SWIDTH 738 0
DWIDTH 24 0
BBX 22 16 1 0
BITMAP
0FC0F8
1FE3FC
30F61C
207E1C
003C3C
003C38
0038E0
0FFF00
3C7800
707800
F07800
E07800
E0F818
F3BC70
FE3FC0
7C1F00
ENDCHAR

STARTCHAR iogonek
ENCODING 231
SWIDTH 333 0
DWIDTH 11 0
BBX 9 29 1 -6
BITMAP
0380
0780
0780
0700
0000
0000
0000
0600
1E00
3E00
DE00
9E00
1E00
1C00
1C00
3C00
3800
3800
7800
7B00
7E00
7800
5000
2000
4000
C000
C000
EC00
7000
ENDCHAR

STARTCHAR ccaron
ENCODING 232
SWIDTH 444 0
DWIDTH 15 0
BBX 15 23 1 0
BITMAP
0C06
061C
0338
03F0
01E0
01C0
0000
01FC
03F8
0E38
1C18
3818
7800
7800
7000
F000
F000
F000
F010
F030
F8E0
7F80
3E00
ENDCHAR

STARTCHAR eacute
ENCODING 233
SWIDTH 444 0
DWIDTH 15 0
BBX 13 23 1 0
BITMAP
0018
0038
0070
00E0
0180
0200
0000
00F0
03F8
0E38
1C38
3838
3870
78E0
71C0
7E00
7000
F000
F000
F030
F8E0
7F80
3E00
ENDCHAR

STARTCHAR eogonek
ENCODING 234
SWIDTH 444 0
DWIDTH 15 0
BBX 13 22 1 -6
BITMAP
00F0
03F8
0E38
1C38
3838
3870
78E0
71C0
7E00
7000
F000
F000
F030
F8E0
7F80
7E00
0400
0C00
1800
1800
1C80
0F00
ENDCHAR

STARTCHAR edieresis
ENCODING 235
SWIDTH 444 0
DWIDTH 15 0
BBX 14 21 1 0
BITMAP
0C18
1E3C
1E3C
0C18
0000
00F0
03F8
0E38
1C38
3838
3870
78E0
71C0
7E00
7000
F000
F000
F030
F8E0
7F80
3E00
ENDCHAR

STARTCHAR edotaccent
ENCODING 236
SWIDTH 444 0
DWIDTH 15 0
BBX 13 22 1 0
BITMAP
00C0
01E0
01E0
00C0
0000
0000
00F0
03F8
0E38
1C38
3838
3870
78E0
71C0
7E00
7000
F000
F000
F030
F8E0
7F80
3E00
ENDCHAR

STARTCHAR iacute
ENCODING 237
SWIDTH 333 0
DWIDTH 11 0
BBX 11 23 1 0
BITMAP
00E0
01E0
03C0
0700
1C00
0000
0000
0700
1F00
3F00
DE00
9E00
1E00
1C00
1C00
3C00
3C00
3800
7800
7980
7E00
7800
7000
ENDCHAR

STARTCHAR icircumflex
ENCODING 238
SWIDTH 333 0
DWIDTH 11 0
BBX 11 23 1 0
BITMAP
0700
0F80
1D80
38C0
E0E0
0000
0000
0700
1F00
3F00
DE00
9E00
1E00
1C00
1C00
3C00
3C00
3800
7800
7980
7E00
7800
7000
ENDCHAR

STARTCHAR imacron
ENCODING 239
SWIDTH 333 0
DWIDTH 11 0
BBX 12 21 1 0
BITMAP
7FF0
7FF0
0000
0000
0000
0700
1F00
3F00
DE00
9E00
1E00
1C00
1C00
3C00
3C00
3800
7800
7980
7E00
7800
7000
ENDCHAR

STARTCHAR dcroat
ENCODING 240
SWIDTH 556 0
DWIDTH 18 0
BBX 20 25 1 0
BITMAP
000080
003F80
003F80
000780
000700
01FFF0
000F00
000F00
00F700
03FE00
0E0E00
1C1E00
3C1E00
381E00
781C00
783C00
780C00
707C00
F0DC00
F0B800
F13900
F27900
FC7E00
F87C00
603000
ENDCHAR

STARTCHAR ncommaaccent
ENCODING 241
SWIDTH 556 0
DWIDTH 18 0
BBX 17 25 0 -9
BITMAP
030300
0E0F80
3E1F00
FE3700
4E4F00
0E8F00
1D0E00
1F0E00
1E1E00
1C1E00
3C1C00
3C1C00
383C80
383D80
783E00
783C00
000000
000000
038000
070000
070000
060000
0C0000
080000
100000
ENDCHAR

STARTCHAR omacron
ENCODING 242
SWIDTH 556 0
DWIDTH 18 0
BBX 15 21 2 0
BITMAP
07FE
07FE
0000
0000
0000
03F8
0E3C
1C1E
381E
381E
781E
701E
F01E
F01C
F01C
F03C
F038
F070
7860
7FC0
1E00
ENDCHAR

STARTCHAR kcommaaccent
ENCODING 243
SWIDTH 556 0
DWIDTH 18 0
BBX 17 33 1 -8
BITMAP
008000
078000
3F8000
078000
070000
0F0000
0F0000
0F0000
0E0000
0E0780
0E0F80
1E3880
1E6000
1CC000
1CC000
3DC000
39E000
3DE000
38E000
38F000
78F000
787980
707F00
703C00
803000
000000
010000
070000
0E0000
0E0000
0C0000
180000
300000
ENDCHAR

STARTCHAR ocircumflex
ENCODING 244
SWIDTH 556 0
DWIDTH 18 0
BBX 15 23 2 0
BITMAP
00F0
01F0
03B8
0318
0E0C
0000
0000
03F8
0E3C
1C1E
381E
381E
781E
701E
F01E
F01C
F01C
F03C
F038
F070
7860
7FC0
1E00
ENDCHAR

STARTCHAR otilde
ENCODING 245
SWIDTH 556 0
DWIDTH 18 0
BBX 15 23 2 0
BITMAP
0382
07E6
0CFC
0838
0000
0000
0000
03F8
0E3C
1C1E
381E
381E
781E
701E
F01E
F01C
F01C
F03C
F038
F070
7860
7FC0
1E00
ENDCHAR

STARTCHAR odieresis
ENCODING 246
SWIDTH 556 0
DWIDTH 18 0
BBX 15 22 2 0
BITMAP
060C
0F1E
0F1E
060C
0000
0000
03F8
0E3C
1C1E
381E
381E
781E
701E
F01E
F01C
F03C
F03C
F038
F070
78E0
7F80
1E00
ENDCHAR

STARTCHAR divide
ENCODING 247
SWIDTH 606 0
DWIDTH 20 0
BBX 16 15 2 4
BITMAP
03C0
03C0
03C0
03C0
0000
0000
FFFF
FFFF
FFFF
0000
0000
03C0
03C0
03C0
03C0
ENDCHAR

STARTCHAR oslash
ENCODING 248
SWIDTH 556 0
DWIDTH 18 0
BBX 17 19 1 -1
BITMAP
000080
000180
01FF00
031E00
0E0F00
1C1F00
1C3700
3C6F00
38CF00
788F00
798E00
7B1E00
7E1E00
7C1C00
783800
3C7000
7FE000
4F0000
C00000
ENDCHAR

STARTCHAR uogonek
ENCODING 249
SWIDTH 556 0
DWIDTH 18 0
BBX 16 22 1 -6
BITMAP
0603
1E0F
7E0F
CE0E
1E0E
1E1E
1C1E
1C3C
3C2C
385C
387C
38B8
7939
7E3E
7C3C
3010
0020
0040
00C0
00C0
00EC
0078
ENDCHAR

STARTCHAR uacute
ENCODING 250
SWIDTH 556 0
DWIDTH 18 0
BBX 17 23 1 0
BITMAP
000E00
001E00
003C00
007000
00E000
018000
000000
070380
1E0700
7E0F00
CE0F00
1E0E00
1E1E00
1C1E00
1C1E00
3C2C00
3C6C00
385C00
38BC00
793980
7E3E00
7C3C00
303000
ENDCHAR

STARTCHAR ucircumflex
ENCODING 251
SWIDTH 556 0
DWIDTH 18 0
BBX 17 23 1 0
BITMAP
007000
00F800
01D800
018C00
030600
040600
000000
070380
1E0700
7E0F00
CE0F00
1E0E00
1E1E00
1C1E00
1C1E00
3C2C00
3C6C00
385C00
38BC00
793980
7E3E00
7C3C00
303000
ENDCHAR

STARTCHAR udieresis
ENCODING 252
SWIDTH 556 0
DWIDTH 18 0
BBX 17 22 1 0
BITMAP
030600
078F00
078F00
030600
000000
000000
060380
1E0700
7E0F00
CE0F00
1E0E00
1E1E00
1C1E00
1C3E00
3C2C00
385C00
385C00
38BC00
793980
7E3E00
7C3C00
303000
ENDCHAR

STARTCHAR utilde
ENCODING 253
SWIDTH 556 0
DWIDTH 18 0
BBX 17 23 1 0
BITMAP
01E180
03F900
027F00
061E00
000000
000000
000000
0F0780
1E0F00
6E0F00
DE0F00
1E0E00
1E1E00
1C1E00
1C3C00
3C2C00
385C00
385C00
38BC00
793980
7E3E00
7C3C00
303000
ENDCHAR

STARTCHAR umacron
ENCODING 254
SWIDTH 556 0
DWIDTH 18 0
BBX 17 21 1 0
BITMAP
03FF00
07FF00
000000
000000
000000
070380
1E0700
7E0F00
CE0F00
1E0E00
1E1E00
1C1E00
1C1E00
3C2C00
3C6C00
385C00
38BC00
793980
7E3E00
7C3C00
303000
ENDCHAR

STARTCHAR dotaccent
ENCODING 255
SWIDTH 333 0
DWIDTH 11 0
BBX 4 4 6 18
BITMAP
60
F0
F0
60
ENDCHAR
ENDFONT
